<?xml version="1.0" standalone="no"?>
<!DOCTYPE svg PUBLIC "-//W3C//DTD SVG 20010904//EN"
 "http://www.w3.org/TR/2001/REC-SVG-20010904/DTD/svg10.dtd">
<svg version="1.0" xmlns="http://www.w3.org/2000/svg"
 width="300.000000pt" height="83.000000pt" viewBox="0 0 300.000000 83.000000"
 preserveAspectRatio="xMidYMid meet">
<metadata>
Created by potrace 1.10, written by Peter Selinger 2001-2011
</metadata>
<g transform="translate(0.000000,83.000000) scale(0.100000,-0.100000)"
fill="#000000" stroke="none">
<path d="M1177 578 c-78 -21 -133 -104 -91 -139 34 -28 101 41 91 94 -3 20 -4
19 -12 -8 -13 -48 -35 -75 -61 -75 -60 0 5 101 74 116 15 3 36 9 47 14 27 12
0 11 -48 -2z"/>
<path d="M1231 537 c-18 -23 -47 -71 -64 -105 -33 -69 -64 -97 -97 -87 -24 8
-26 21 -5 29 22 8 18 36 -5 36 -29 0 -28 -55 1 -70 55 -30 126 26 159 124 20
60 59 114 73 99 26 -26 -18 -108 -52 -95 -14 5 -14 3 -3 -10 11 -13 10 -23 -3
-54 -9 -21 -13 -44 -11 -51 8 -19 51 -16 67 5 11 14 11 15 -1 5 -24 -22 -28
-15 -26 39 1 47 4 55 31 73 36 24 43 59 19 86 -26 28 -45 23 -83 -24z"/>
<path d="M1933 525 c-3 -9 -3 -18 0 -22 10 -10 37 6 37 22 0 20 -29 20 -37 0z"/>
<path d="M1530 481 c0 -6 -23 -41 -51 -78 -29 -37 -43 -60 -32 -50 18 16 21
16 26 2 8 -19 61 -20 77 0 8 9 10 27 5 47 -3 18 -7 45 -8 61 -2 24 -17 41 -17
18z m-10 -111 c-12 -22 -32 -28 -24 -6 3 8 1 17 -5 21 -7 4 -3 17 12 37 l22
30 3 -31 c2 -16 -2 -39 -8 -51z"/>
<path d="M1751 412 c-29 -42 -44 -69 -33 -59 17 16 20 16 25 2 10 -25 60 -18
88 12 13 14 19 24 13 20 -12 -7 -39 77 -29 92 3 6 3 11 -2 10 -4 0 -32 -35
-62 -77z m40 -35 c-6 -15 -15 -27 -20 -27 -6 0 -8 6 -5 14 3 8 0 17 -5 21 -8
4 -4 17 11 38 l23 32 3 -26 c2 -14 -2 -37 -7 -52z"/>
<path d="M1334 418 c-22 -23 -33 -38 -26 -34 8 5 12 -1 12 -17 0 -34 23 -40
54 -16 22 17 26 18 26 5 0 -9 5 -16 10 -16 6 0 10 5 10 11 0 7 13 33 29 59
l29 47 -53 1 c-49 0 -55 -3 -91 -40z m86 20 c0 -21 -37 -76 -59 -88 -31 -16
-27 9 9 58 30 42 50 53 50 30z"/>
<path d="M1611 430 c-47 -47 -26 -119 25 -85 16 10 24 11 32 3 7 -7 13 -10 15
-7 1 2 13 27 27 54 13 28 26 53 28 56 1 3 -20 6 -48 7 -42 1 -54 -3 -79 -28z
m79 9 c0 -19 -41 -79 -61 -89 -27 -15 -25 3 6 57 24 40 55 58 55 32z"/>
<path d="M1886 435 c-4 -14 -11 -23 -16 -20 -5 3 -12 0 -16 -6 -4 -7 -3 -9 4
-5 7 4 9 -5 5 -29 -8 -52 8 -43 44 25 l32 60 -23 0 c-17 0 -26 -7 -30 -25z"/>
</g>
</svg>
